<mxfile host="app.diagrams.net" agent="Mozilla/5.0 (Windows NT 10.0; Win64; x64) AppleWebKit/537.36 (KHTML, like Gecko) Chrome/133.0.0.0 Safari/537.36" version="26.0.13">
  <diagram name="Page-1" id="12e1b939-464a-85fe-373e-61e167be1490">
    <mxGraphModel dx="1434" dy="746" grid="1" gridSize="10" guides="1" tooltips="1" connect="1" arrows="1" fold="1" page="1" pageScale="1.5" pageWidth="1169" pageHeight="826" background="#ffffff" math="0" shadow="0">
      <root>
        <mxCell id="0" />
        <mxCell id="1" parent="0" />
        <mxCell id="60da8b9f42644d3a-24" value="" style="whiteSpace=wrap;html=1;rounded=1;shadow=0;strokeWidth=8;fontSize=20;align=center;strokeColor=#FFFFFF;fillColor=#196113;" parent="1" vertex="1">
          <mxGeometry x="747" y="110" width="280" height="260" as="geometry" />
        </mxCell>
        <mxCell id="60da8b9f42644d3a-27" value="" style="line;strokeWidth=2;html=1;rounded=0;shadow=0;fontSize=27;align=center;fillColor=none;strokeColor=#FFFFFF;" parent="1" vertex="1">
          <mxGeometry x="767" y="190" width="240" height="10" as="geometry" />
        </mxCell>
        <mxCell id="60da8b9f42644d3a-31" value="" style="whiteSpace=wrap;html=1;rounded=1;shadow=0;strokeWidth=8;fontSize=20;align=center;strokeColor=#FFFFFF;fillColor=#e47500;" parent="1" vertex="1">
          <mxGeometry x="1027" y="110" width="280" height="260" as="geometry" />
        </mxCell>
        <mxCell id="60da8b9f42644d3a-34" value="" style="line;strokeWidth=2;html=1;rounded=0;shadow=0;fontSize=27;align=center;fillColor=none;strokeColor=#FFFFFF;" parent="1" vertex="1">
          <mxGeometry x="1047" y="190" width="240" height="10" as="geometry" />
        </mxCell>
        <mxCell id="60da8b9f42644d3a-37" value="" style="html=1;shadow=0;dashed=0;align=center;verticalAlign=middle;shape=mxgraph.arrows2.stylisedArrow;dy=0.6;dx=40;notch=15;feather=0.4;rounded=0;strokeWidth=1;fontSize=27;strokeColor=none;fillColor=#CCCCCC;" parent="1" vertex="1">
          <mxGeometry x="1117" y="246" width="100" height="60" as="geometry" />
        </mxCell>
        <mxCell id="awgjqPLiiekeFISjJ3Pd-5" value="" style="whiteSpace=wrap;html=1;rounded=1;shadow=0;strokeWidth=8;fontSize=20;align=center;strokeColor=#FFFFFF;fillColor=#3d013d;fontColor=#0066CC;" parent="1" vertex="1">
          <mxGeometry x="1307" y="110" width="280" height="260" as="geometry" />
        </mxCell>
        <mxCell id="awgjqPLiiekeFISjJ3Pd-6" value="&lt;font color=&quot;#ffffff&quot;&gt;Production (prd)&lt;/font&gt;" style="text;html=1;strokeColor=none;fillColor=none;align=center;verticalAlign=middle;whiteSpace=wrap;rounded=0;shadow=0;fontSize=27;fontStyle=1" parent="1" vertex="1">
          <mxGeometry x="1304" y="130" width="280" height="60" as="geometry" />
        </mxCell>
        <mxCell id="awgjqPLiiekeFISjJ3Pd-8" value="" style="line;strokeWidth=2;html=1;rounded=0;shadow=0;fontSize=27;align=center;fillColor=none;strokeColor=#FFFFFF;" parent="1" vertex="1">
          <mxGeometry x="1327" y="190" width="240" height="10" as="geometry" />
        </mxCell>
        <mxCell id="awgjqPLiiekeFISjJ3Pd-10" value="Change Management Gate" style="ellipse;whiteSpace=wrap;html=1;rounded=0;shadow=0;strokeWidth=6;fontSize=16;align=center;strokeColor=#FFFFFF;fillColor=#CCFFCC;" parent="1" vertex="1">
          <mxGeometry x="1250" y="218" width="115" height="115" as="geometry" />
        </mxCell>
        <mxCell id="awgjqPLiiekeFISjJ3Pd-15" value="Path to Live (PTL)" style="text;html=1;align=center;verticalAlign=middle;resizable=0;points=[];autosize=1;fontSize=60;fontStyle=3;fillColor=#ffffff;rounded=0;fontColor=#4D4D4D;textOpacity=80;spacingTop=1;spacing=8;" parent="1" vertex="1">
          <mxGeometry x="940" width="540" height="90" as="geometry" />
        </mxCell>
        <mxCell id="awgjqPLiiekeFISjJ3Pd-68" value="QA Gate and Product Owner" style="ellipse;whiteSpace=wrap;html=1;rounded=0;shadow=0;strokeWidth=6;fontSize=16;align=center;strokeColor=#FFFFFF;fillColor=#FFE6CC;" parent="1" vertex="1">
          <mxGeometry x="963.5" y="215.5" width="115" height="115" as="geometry" />
        </mxCell>
        <mxCell id="awgjqPLiiekeFISjJ3Pd-71" value="Testing Activities" style="whiteSpace=wrap;html=1;rounded=1;shadow=0;strokeWidth=3;fontSize=20;align=center;labelBackgroundColor=none;fillColor=#FFFFFF;strokeColor=#CCCCCC;fontStyle=1" parent="1" vertex="1">
          <mxGeometry x="470" y="382" width="1110" height="40" as="geometry" />
        </mxCell>
        <mxCell id="awgjqPLiiekeFISjJ3Pd-91" value="&lt;ul style=&quot;font-size: 20px&quot;&gt;&lt;li style=&quot;font-size: 20px&quot;&gt;Integration Tests&lt;/li&gt;&lt;li style=&quot;font-size: 20px&quot;&gt;E2E Tests&amp;nbsp;&lt;/li&gt;&lt;li style=&quot;font-size: 20px&quot;&gt;Performance Tests&lt;/li&gt;&lt;li style=&quot;font-size: 20px&quot;&gt;UI/UX&lt;/li&gt;&lt;li style=&quot;font-size: 20px&quot;&gt;SCA (Static Analysis)&lt;/li&gt;&lt;li style=&quot;font-size: 20px&quot;&gt;SAST&lt;/li&gt;&lt;li&gt;NFR Tests&lt;/li&gt;&lt;/ul&gt;" style="text;html=1;align=left;verticalAlign=middle;whiteSpace=wrap;rounded=1;shadow=0;fontSize=20;strokeWidth=3;fillColor=#ffffff;perimeterSpacing=5;strokeColor=#99CCFF;" parent="1" vertex="1">
          <mxGeometry x="470" y="440" width="264" height="170" as="geometry" />
        </mxCell>
        <mxCell id="awgjqPLiiekeFISjJ3Pd-93" value="&lt;ul style=&quot;font-size: 20px&quot;&gt;&lt;li&gt;Integration Tests&lt;/li&gt;&lt;li&gt;Performance&lt;/li&gt;&lt;li&gt;UAT&lt;/li&gt;&lt;li&gt;Reliability&lt;/li&gt;&lt;li&gt;Disaster Recovery&lt;/li&gt;&lt;/ul&gt;" style="text;html=1;align=left;verticalAlign=middle;whiteSpace=wrap;rounded=1;shadow=0;fontSize=20;strokeWidth=3;fillColor=#ffffff;perimeterSpacing=5;strokeColor=#3399FF;" parent="1" vertex="1">
          <mxGeometry x="753" y="440" width="270" height="170" as="geometry" />
        </mxCell>
        <mxCell id="awgjqPLiiekeFISjJ3Pd-94" value="&lt;ul style=&quot;font-size: 20px&quot;&gt;&lt;li&gt;Integration Tests&lt;/li&gt;&lt;li&gt;E2E Tests&amp;nbsp;&lt;/li&gt;&lt;li&gt;Performance Tests&lt;/li&gt;&lt;li&gt;UI/UX&lt;/li&gt;&lt;li&gt;SCA (Static Analysis)&lt;/li&gt;&lt;li&gt;SAST&lt;/li&gt;&lt;/ul&gt;" style="text;html=1;align=left;verticalAlign=middle;whiteSpace=wrap;rounded=1;shadow=0;fontSize=20;strokeWidth=3;fillColor=#ffffff;perimeterSpacing=5;strokeColor=#004C99;" parent="1" vertex="1">
          <mxGeometry x="1047" y="440" width="270" height="170" as="geometry" />
        </mxCell>
        <mxCell id="awgjqPLiiekeFISjJ3Pd-102" value="Code Branch" style="whiteSpace=wrap;html=1;rounded=1;shadow=0;strokeWidth=3;fontSize=20;align=center;labelBackgroundColor=none;fillColor=#FFFFFF;strokeColor=#CCCCCC;fontStyle=1" parent="1" vertex="1">
          <mxGeometry x="470" y="629" width="1101" height="40" as="geometry" />
        </mxCell>
        <mxCell id="awgjqPLiiekeFISjJ3Pd-103" value="&lt;ul style=&quot;font-size: 20px&quot;&gt;&lt;li style=&quot;font-size: 20px&quot;&gt;feature/* sq1 - sq5&lt;/li&gt;&lt;/ul&gt;" style="text;html=1;align=left;verticalAlign=middle;whiteSpace=wrap;rounded=1;shadow=0;fontSize=20;strokeWidth=3;fillColor=#ffffff;perimeterSpacing=5;strokeColor=#99CCFF;" parent="1" vertex="1">
          <mxGeometry x="470" y="688" width="270" height="52" as="geometry" />
        </mxCell>
        <mxCell id="awgjqPLiiekeFISjJ3Pd-105" value="&lt;ul style=&quot;font-size: 20px&quot;&gt;&lt;li&gt;main&lt;/li&gt;&lt;/ul&gt;" style="text;html=1;align=left;verticalAlign=middle;whiteSpace=wrap;rounded=1;shadow=0;fontSize=20;strokeWidth=3;fillColor=#ffffff;perimeterSpacing=5;strokeColor=#3399FF;" parent="1" vertex="1">
          <mxGeometry x="1023" y="688" width="270" height="52" as="geometry" />
        </mxCell>
        <mxCell id="awgjqPLiiekeFISjJ3Pd-106" value="&lt;ul style=&quot;font-size: 20px&quot;&gt;&lt;li&gt;main&lt;/li&gt;&lt;/ul&gt;" style="text;html=1;align=left;verticalAlign=middle;whiteSpace=wrap;rounded=1;shadow=0;fontSize=20;strokeWidth=3;fillColor=#ffffff;perimeterSpacing=5;strokeColor=#004C99;" parent="1" vertex="1">
          <mxGeometry x="1303" y="688" width="270" height="52" as="geometry" />
        </mxCell>
        <mxCell id="awgjqPLiiekeFISjJ3Pd-110" value="&lt;font color=&quot;#ffffff&quot;&gt;Staging (stg)&lt;/font&gt;" style="text;html=1;strokeColor=none;fillColor=none;align=center;verticalAlign=middle;whiteSpace=wrap;rounded=0;shadow=0;fontSize=27;fontStyle=1" parent="1" vertex="1">
          <mxGeometry x="1018" y="130" width="280" height="60" as="geometry" />
        </mxCell>
        <mxCell id="awgjqPLiiekeFISjJ3Pd-115" value="Environments" style="whiteSpace=wrap;html=1;rounded=1;shadow=0;strokeWidth=3;fontSize=20;align=center;labelBackgroundColor=none;fillColor=#FFFFFF;strokeColor=#CCCCCC;fontStyle=1" parent="1" vertex="1">
          <mxGeometry x="471" y="760" width="1102" height="40" as="geometry" />
        </mxCell>
        <mxCell id="awgjqPLiiekeFISjJ3Pd-116" value="&lt;ul style=&quot;font-size: 20px&quot;&gt;&lt;li style=&quot;font-size: 20px&quot;&gt;tst&lt;/li&gt;&lt;/ul&gt;" style="text;html=1;align=left;verticalAlign=middle;whiteSpace=wrap;rounded=1;shadow=0;fontSize=20;strokeWidth=3;fillColor=#ffffff;perimeterSpacing=5;strokeColor=#99CCFF;" parent="1" vertex="1">
          <mxGeometry x="739" y="819" width="270" height="52" as="geometry" />
        </mxCell>
        <mxCell id="awgjqPLiiekeFISjJ3Pd-118" value="&lt;ul style=&quot;font-size: 20px&quot;&gt;&lt;li&gt;stg&lt;/li&gt;&lt;/ul&gt;" style="text;html=1;align=left;verticalAlign=middle;whiteSpace=wrap;rounded=1;shadow=0;fontSize=20;strokeWidth=3;fillColor=#ffffff;perimeterSpacing=5;strokeColor=#3399FF;" parent="1" vertex="1">
          <mxGeometry x="1024" y="819" width="270" height="52" as="geometry" />
        </mxCell>
        <mxCell id="awgjqPLiiekeFISjJ3Pd-119" value="&lt;ul style=&quot;font-size: 20px&quot;&gt;&lt;li&gt;prd&lt;/li&gt;&lt;/ul&gt;" style="text;html=1;align=left;verticalAlign=middle;whiteSpace=wrap;rounded=1;shadow=0;fontSize=20;strokeWidth=3;fillColor=#ffffff;perimeterSpacing=5;strokeColor=#004C99;" parent="1" vertex="1">
          <mxGeometry x="1304" y="819" width="270" height="52" as="geometry" />
        </mxCell>
        <mxCell id="x4uxiGb_Jn-zAqUyaWvG-2" value="&lt;font color=&quot;#ffffff&quot;&gt;Test (tst)&lt;/font&gt;" style="text;html=1;strokeColor=none;fillColor=none;align=center;verticalAlign=middle;whiteSpace=wrap;rounded=0;shadow=0;fontSize=27;fontStyle=1" parent="1" vertex="1">
          <mxGeometry x="742" y="130" width="280" height="60" as="geometry" />
        </mxCell>
        <mxCell id="x4uxiGb_Jn-zAqUyaWvG-3" value="&lt;ul style=&quot;font-size: 20px&quot;&gt;&lt;li&gt;Ad hoc tests&lt;/li&gt;&lt;/ul&gt;" style="text;html=1;align=left;verticalAlign=middle;whiteSpace=wrap;rounded=1;shadow=0;fontSize=20;strokeWidth=3;fillColor=#ffffff;perimeterSpacing=5;strokeColor=#004C99;" parent="1" vertex="1">
          <mxGeometry x="1610" y="440" width="270" height="170" as="geometry" />
        </mxCell>
        <mxCell id="x4uxiGb_Jn-zAqUyaWvG-4" value="Demo environment" style="rounded=1;whiteSpace=wrap;html=1;fillColor=#d17c26;" parent="1" vertex="1">
          <mxGeometry x="1387" y="280" width="120" height="60" as="geometry" />
        </mxCell>
        <mxCell id="t2prOrQX7hn-77aAbnMg-1" value="" style="whiteSpace=wrap;html=1;rounded=1;shadow=0;strokeWidth=8;fontSize=20;align=center;strokeColor=#FFFFFF;fillColor=light-dark(#7e7c7d, #ededed);gradientColor=none;" vertex="1" parent="1">
          <mxGeometry x="464" y="110" width="280" height="260" as="geometry" />
        </mxCell>
        <mxCell id="t2prOrQX7hn-77aAbnMg-2" value="&lt;ul style=&quot;font-size: 20px&quot;&gt;&lt;li&gt;main&lt;/li&gt;&lt;/ul&gt;" style="text;html=1;align=left;verticalAlign=middle;whiteSpace=wrap;rounded=1;shadow=0;fontSize=20;strokeWidth=3;fillColor=#ffffff;perimeterSpacing=5;strokeColor=#3399FF;" vertex="1" parent="1">
          <mxGeometry x="747" y="688" width="270" height="52" as="geometry" />
        </mxCell>
        <mxCell id="t2prOrQX7hn-77aAbnMg-3" value="&lt;font color=&quot;#ffffff&quot;&gt;Dev (dev) - Change&lt;/font&gt;" style="text;html=1;strokeColor=none;fillColor=none;align=center;verticalAlign=middle;whiteSpace=wrap;rounded=0;shadow=0;fontSize=27;fontStyle=1" vertex="1" parent="1">
          <mxGeometry x="460" y="130" width="280" height="60" as="geometry" />
        </mxCell>
        <mxCell id="t2prOrQX7hn-77aAbnMg-4" value="" style="html=1;shadow=0;dashed=0;align=center;verticalAlign=middle;shape=mxgraph.arrows2.stylisedArrow;dy=0.6;dx=40;notch=15;feather=0.4;rounded=0;strokeWidth=1;fontSize=27;strokeColor=none;fillColor=#CCCCCC;" vertex="1" parent="1">
          <mxGeometry x="832" y="240" width="100" height="60" as="geometry" />
        </mxCell>
        <mxCell id="t2prOrQX7hn-77aAbnMg-5" value="&lt;ul style=&quot;font-size: 20px&quot;&gt;&lt;li&gt;Integration Tests&lt;/li&gt;&lt;li&gt;E2E Tests&amp;nbsp;&lt;/li&gt;&lt;li&gt;Performance Tests&lt;/li&gt;&lt;li&gt;UI/UX&lt;/li&gt;&lt;li&gt;SCA (Static Analysis)&lt;/li&gt;&lt;li&gt;SAST&lt;/li&gt;&lt;/ul&gt;" style="text;html=1;align=left;verticalAlign=middle;whiteSpace=wrap;rounded=1;shadow=0;fontSize=20;strokeWidth=3;fillColor=#ffffff;perimeterSpacing=5;strokeColor=#004C99;" vertex="1" parent="1">
          <mxGeometry x="1327" y="440" width="270" height="170" as="geometry" />
        </mxCell>
        <mxCell id="t2prOrQX7hn-77aAbnMg-6" value="&lt;font color=&quot;#ffffff&quot;&gt;Test (tst)&lt;/font&gt;" style="text;html=1;strokeColor=none;fillColor=none;align=center;verticalAlign=middle;whiteSpace=wrap;rounded=0;shadow=0;fontSize=27;fontStyle=1" vertex="1" parent="1">
          <mxGeometry x="742" y="130" width="280" height="60" as="geometry" />
        </mxCell>
        <mxCell id="t2prOrQX7hn-77aAbnMg-7" value="" style="line;strokeWidth=2;html=1;rounded=0;shadow=0;fontSize=27;align=center;fillColor=none;strokeColor=#FFFFFF;" vertex="1" parent="1">
          <mxGeometry x="484" y="190" width="240" height="10" as="geometry" />
        </mxCell>
        <mxCell id="t2prOrQX7hn-77aAbnMg-8" value="&lt;ul style=&quot;font-size: 20px&quot;&gt;&lt;li style=&quot;font-size: 20px&quot;&gt;dev&lt;/li&gt;&lt;/ul&gt;" style="text;html=1;align=left;verticalAlign=middle;whiteSpace=wrap;rounded=1;shadow=0;fontSize=20;strokeWidth=3;fillColor=#ffffff;perimeterSpacing=5;strokeColor=#99CCFF;" vertex="1" parent="1">
          <mxGeometry x="460" y="819" width="270" height="52" as="geometry" />
        </mxCell>
      </root>
    </mxGraphModel>
  </diagram>
</mxfile>
